<svg width="22" height="18" viewBox="0 0 22 18" fill="none" xmlns="http://www.w3.org/2000/svg">
<path fill-rule="evenodd" clip-rule="evenodd" d="M8.63008 13.7394H13.3699C13.6852 15.1769 14.4111 16.3996 15.3967 17.1493C16.4075 17.918 17.6086 18.1263 18.7359 17.7284C18.7367 17.7281 18.7376 17.7278 18.7384 17.7275C19.8657 17.3296 20.8269 16.358 21.4104 15.0265C21.994 13.6951 22.1521 12.1128 21.85 10.6277C21.4433 8.62793 20.969 6.29638 20.5623 4.29659C20.2602 2.81154 19.5227 1.54536 18.512 0.776649C17.5012 0.00793716 16.3001 -0.200378 15.1728 0.197539C15.172 0.197819 15.1711 0.19813 15.1703 0.198441C14.5217 0.427339 13.9281 0.84615 13.4299 1.41414C13.4302 1.41377 8.56983 1.41377 8.56983 1.41377C8.07215 0.846337 7.47845 0.427401 6.82972 0.19841C6.8289 0.19813 6.82805 0.197819 6.82722 0.197539C5.69991 -0.200378 4.49875 0.00793716 3.48804 0.776649C2.47731 1.54536 1.7398 2.81154 1.43774 4.29659C1.03096 6.29638 0.556728 8.62793 0.149953 10.6277C-0.152109 12.1128 0.00602529 13.6951 0.58956 15.0265C1.17312 16.358 2.13426 17.3296 3.26157 17.7275C3.26242 17.7278 3.26325 17.7281 3.2641 17.7284C4.39141 18.1263 5.59255 17.918 6.60328 17.1493C7.58893 16.3996 8.31476 15.1769 8.63008 13.7394ZM14.6526 12.5316C14.4845 11.7717 13.9466 11.7932 13.9356 11.7932C10.9766 11.8054 8.0644 11.7932 8.0644 11.7932C7.68166 11.8053 7.42619 12.1394 7.34743 12.5316C7.29727 12.7813 7.26796 12.9217 7.22943 13.1117C7.16734 13.4179 7.16715 13.4178 7.22659 13.1256C7.02594 14.1121 6.53601 14.9532 5.86461 15.4639C5.19322 15.9745 4.39531 16.1129 3.64646 15.8485L3.64393 15.8477C2.89508 15.5833 2.25661 14.938 1.86898 14.0535C1.48135 13.169 1.37631 12.1179 1.57696 11.1314C1.98371 9.13162 2.45795 6.80008 2.86473 4.80028C3.06538 3.81379 3.55529 2.97271 4.22671 2.46204C4.8981 1.95141 5.69601 1.81303 6.44484 2.07736L6.44737 2.07826C6.9473 2.25472 7.39804 2.60101 7.75777 3.07491C7.89631 3.25741 8.08418 3.35992 8.28009 3.35992H13.7199C13.9158 3.35992 14.1037 3.25741 14.2422 3.07491C14.602 2.60101 15.0527 2.25472 15.5526 2.07826L15.5552 2.07736C16.304 1.81303 17.1019 1.95141 17.7733 2.46204C18.4447 2.97271 18.9346 3.81379 19.1353 4.80028C19.542 6.80008 20.0163 9.13162 20.4231 11.1314C20.6237 12.1179 20.5187 13.169 20.131 14.0535C19.7434 14.938 19.1049 15.5833 18.3561 15.8477L18.3535 15.8485C17.6047 16.1129 16.8068 15.9745 16.1354 15.4639C15.4706 14.9582 14.9838 14.1287 14.7794 13.1548L14.6526 12.5316ZM8.62571 13.7394H8.62538L8.62337 13.7465L8.60791 13.7931C8.61425 13.7755 8.6202 13.7576 8.62571 13.7394ZM5.09068 6.48016H4.35731C3.94963 6.48016 3.61864 6.91619 3.61864 7.45324C3.61864 7.99028 3.94963 8.42631 4.35731 8.42631H5.09068V9.39241C5.09068 9.92945 5.42165 10.3655 5.82934 10.3655C6.23702 10.3655 6.56801 9.92945 6.56801 9.39241V8.42631H7.30136C7.70906 8.42631 8.04003 7.99028 8.04003 7.45324C8.04003 6.91619 7.70906 6.48016 7.30136 6.48016H6.56801V5.51407C6.56801 4.97702 6.23702 4.54099 5.82934 4.54099C5.42165 4.54099 5.09068 4.97702 5.09068 5.51407V6.48016Z" fill="black" fill-opacity="0.7"/>
<path fill-rule="evenodd" clip-rule="evenodd" d="M15.3943 13.3356C15.3943 12.7673 15.7446 12.3058 16.1761 12.3058C16.6076 12.3058 16.9579 12.7673 16.9579 13.3356C16.9579 13.904 16.6076 14.3655 16.1761 14.3655C15.7446 14.3655 15.3943 13.904 15.3943 13.3356ZM17.605 10.4234C18.0365 10.4234 18.3868 10.8849 18.3868 11.4533C18.3868 12.0217 18.0365 12.4831 17.605 12.4831C17.1736 12.4831 16.8233 12.0217 16.8233 11.4533C16.8233 10.8849 17.1736 10.4234 17.605 10.4234ZM14.7472 10.4234C15.1786 10.4234 15.5289 10.8849 15.5289 11.4533C15.5289 12.0217 15.1786 12.4831 14.7472 12.4831C14.3157 12.4831 13.9654 12.0217 13.9654 11.4533C13.9654 10.8849 14.3157 10.4234 14.7472 10.4234ZM15.3943 9.57088C15.3943 9.00249 15.7446 8.54102 16.1761 8.54102C16.6076 8.54102 16.9579 9.00249 16.9579 9.57088C16.9579 10.1393 16.6076 10.6007 16.1761 10.6007C15.7446 10.6007 15.3943 10.1393 15.3943 9.57088Z" fill="black"/>
</svg>
